# AST/ASF file generated using VICON BodyLanguage
# -----------------------------------------------
:version 1.10
:name VICON
:units
  mass 1.0
  length 0.45
  angle deg
:documentation
   .ast/.asf automatically generated from VICON data using
   VICON BodyBuilder and BodyLanguage model FoxedUp or BRILLIANT.MOD
:root
   order TX TY TZ RX RY RZ
   axis XYZ
   position 0 0 0  
   orientation 0 0 0 
:bonedata
  begin
     id 1 
     name lhipjoint
     direction 0.635376 -0.686425 0.353719 
     length 2.47244 
     axis 0 0 0  XYZ
  end
  begin
     id 2 
     name lfemur
     direction 0.34202 -0.939693 0  
     length 7.25268  
     axis 0 0 20  XYZ
    dof rx ry rz
    limits (-160.0 20.0)
           (-70.0 70.0)
           (-60.0 70.0)
  end
  begin
     id 3 
     name ltibia
     direction 0.34202 -0.939693 0   
     length 7.6767   
     axis 0 0 20   XYZ
    dof rx
    limits (-10.0 170.0)
  end
  begin
     id 4 
     name lfoot
     direction 0.0803374 -0.220725 0.972022   
     length 2.22945   
     axis -90 7.62852e-016 20   XYZ
    dof rx rz
    limits (-45.0 90.0)
           (-70.0 20.0)
  end
  begin
     id 5 
     name ltoes
     direction 1.53579e-011 -4.21994e-011 1   
     length 1.11848   
     axis -90 7.62852e-016 20   XYZ
    dof rx
    limits (-90.0 20.0)
  end
  begin
     id 6 
     name rhipjoint
     direction -0.664428 -0.664335 0.342336   
     length 2.55466  
     axis 0 0 0  XYZ 
  end
  begin
     id 7 
     name rfemur
     direction -0.34202 -0.939693 0   
     length 6.83172   
     axis 0 0 -20   XYZ
    dof rx ry rz
    limits (-160.0 20.0)
           (-70.0 70.0)
           (-70.0 60.0)
  end
  begin
     id 8 
     name rtibia
     direction -0.34202 -0.939693 0   
     length 7.62692   
     axis 0 0 -20   XYZ
    dof rx
    limits (-10.0 170.0)
 end
 begin
     id 9 
     name rfoot
     direction -0.0949276 -0.260811 0.960711   
     length 2.19684  
     axis -90 -7.62852e-016 -20   XYZ
    dof rx rz
    limits (-45.0 90.0)
           (-20.0 70.0)
  end
  begin
     id 10 
     name rtoes
     direction -1.53543e-011 -4.2183e-011 1   
     length 1.09848   
     axis -90 -7.62852e-016 -20   XYZ
    dof rx
    limits (-90.0 20.0)
  end
  begin
     id 11 
     name lowerback
     direction 0.0118782 0.999815 -0.0151555   
     length 2.15772   
     axis 0 0 0   XYZ
    dof rx ry rz
    limits (-20.0 45.0)
           (-30.0 30.0)
           (-30.0 30.0)
  end
  begin
     id 12 
     name upperback
     direction 0.00130825 0.999065 0.0432113   
     length 2.14863   
     axis 0 0 0   XYZ
    dof rx ry rz
    limits (-20.0 45.0)
           (-30.0 30.0)
           (-30.0 30.0)
  end
  begin
     id 13 
     name thorax
     direction -0.00347005 0.998773 0.0494011   
     length 2.14936   
     axis 0 0 0   XYZ
    dof rx ry rz
    limits (-20.0 45.0)
           (-30.0 30.0)
           (-30.0 30.0)
  end
  begin
     id 14 
     name lowerneck
     direction -0.0262159 0.99424 0.103921   
     length 1.69373   
     axis 0 0 0   XYZ
    dof rx ry rz
    limits (-20.0 45.0)
           (-30.0 30.0)
           (-30.0 30.0)
  end
  begin
     id 15 
     name upperneck
     direction 0.0353511 0.977394 -0.20845   
     length 1.70857   
     axis 0 0 0   XYZ
    dof rx ry rz
    limits (-20.0 45.0)
           (-30.0 30.0)
           (-30.0 30.0)
  end
  begin
     id 16
     name head
     direction 0.0139214 0.996594 -0.0812836  
     length 1.72777  
     axis 0 0 0   XYZ
    dof rx ry rz
    limits (-20.0 45.0)
           (-30.0 30.0)
           (-30.0 30.0)
  end
  begin
     id 17 
     name lclavicle
     direction 0.841247 0.537205 -0.0609508  
     length 3.55371  
     axis 0 0 0   XYZ
    dof ry rz
    limits (-20.0 10.0)
           (0.0 20.0)
  end
  begin
     id 18 
     name lhumerus
     direction 1 -4.48964e-011 1.60116e-018   
     length 4.91377   
     axis -180 -30 -90   XYZ
    dof rx ry rz
    limits (-60.0 90.0)
           (-90.0 90.0)
           (-90.0 90.0)
  end
  begin
     id 19
     name lradius
     direction 1 -4.48989e-011 -8.93847e-027   
     length 3.00291   
     axis -180 -30 -90   XYZ
    dof rx
    limits (-10.0 170.0)
  end
  begin
     id 20
     name lwrist
     direction 1 -4.48932e-011 -7.31504e-027   
     length 1.50145   
     axis 5.74121e-015 90 90   XYZ
    dof ry
    limits (-180.0 0.0)
 end
  begin
     id 21 
     name lhand
     direction 1 -4.48971e-011 -1.46301e-026   
     length 0.450922   
     axis 9.33524e-015 90 90   XYZ
    dof rx rz
    limits (-90.0 90.0)
           (-45.0 45.0)
  end
  begin
     id 22 
     name lfingers
     direction 1 -4.49039e-011 -2.92602e-026   
     length 0.363545   
     axis 1.86705e-014 90 90   XYZ
    dof rx
    limits (0.0 90.0)
  end
  begin
     id 23
     name lthumb
     direction 0.707107 -6.34941e-011 0.707107   
     length 0.52198   
     axis -90 45 2.85299e-015   XYZ
    dof rx rz
    limits (-45.0 45.0)
           (-45.0 45.0)
  end
  begin
     id 24 
     name rclavicle
     direction -0.825079 0.56158 -0.0622297   
     length 3.39909  
     axis 0 0 0   XYZ 
    dof ry rz
    limits (-10.0 20.0)
           (-20.0 0.0)
  end
  begin
     id 25 
     name rhumerus
     direction -1 -4.48965e-011 1.61691e-027  
     length 4.86725   
     axis -180 30 90   XYZ
    dof rx ry rz
    limits (-90.0 60.0)
           (-90.0 90.0)
           (-90.0 90.0)
  end
  begin
     id 26 
     name rradius
     direction -1 -4.48964e-011 -2.25776e-027   
     length 3.17144   
     axis -180 30 90   XYZ
    dof rx
    limits (-10.0 170.0)
  end
  begin
     id 27 
     name rwrist
     direction -1 -4.48961e-011 -7.31504e-027   
     length 1.58572   
     axis 5.74121e-015 -90 -90   XYZ
    dof ry
    limits (-180.0 0.0)
  end
  begin
     id 28
     name rhand
     direction -1 -4.49013e-011 -1.46301e-026   
     length 0.419368   
     axis 9.33524e-015 -90 -90   XYZ
    dof rx rz
    limits (-90.0 90.0)
           (-45.0 45.0)
  end
  begin
     id 29
     name rfingers
     direction -1 -4.489e-011 -2.92602e-026   
     length 0.338105   
     axis 1.86705e-014 -90 -90   XYZ
    dof rx
    limits (0.0 90.0)
  end
  begin
     id 30
     name rthumb
     direction -0.707107 -6.35022e-011 0.707107   
     length 0.485453   
     axis -90 -45 -2.85299e-015   XYZ
    dof rx rz
    limits (-45.0 45.0)
           (-45.0 45.0)
  end
:hierarchy
  begin
    root lhipjoint rhipjoint lowerback
    lhipjoint lfemur
    lfemur ltibia
    ltibia lfoot
    lfoot ltoes
    rhipjoint rfemur
    rfemur rtibia
    rtibia rfoot
    rfoot rtoes
    lowerback upperback
    upperback thorax
    thorax lowerneck lclavicle rclavicle
    lowerneck upperneck
    upperneck head
    lclavicle lhumerus
    lhumerus lradius
    lradius lwrist
    lwrist lhand lthumb
    lhand lfingers
    rclavicle rhumerus
    rhumerus rradius
    rradius rwrist
    rwrist rhand rthumb
    rhand rfingers
  end

#!OML:ASF H:\Swim 2\Project 1\Capture day 1\Session 1\male.ASF
:FULLY-SPECIFIED
:DEGREES
235
root 3.04032 14.9284 9.34531 105.442 4.93735 3.92748
lowerback -9.63293 1.61396 17.5265
upperback -6.10291 0.793037 -4.50923
thorax -1.0165 -0.192954 -15.0069
lowerneck -15.2471 -0.202481 -2.13849
upperneck 49.1155 -0.133156 2.21778
head 24.1152 -0.17914 1.69465
rclavicle -5.56597e-015 -5.29885e-015
rhumerus 105.654 -17.2169 -45.8034
rradius 24.4012
rwrist -3.08896
rhand -19.7309 -15.7953
rfingers 7.12502
rthumb 6.59964 -45.6725
lclavicle -5.56597e-015 -5.29885e-015
lhumerus 69.4711 31.7794 -38.0272
lradius 33.2791
lwrist 59.7154
lhand -38.8456 -0.171979
lfingers 7.12502
lthumb -11.8547 29.4724
rfemur -50.0205 -1.08618 19.4165
rtibia 48.3387
rfoot 21.5531 1.34999
rtoes 5.76419
lfemur -52.0253 -0.0553759 -24.4838
ltibia 40.3235
lfoot -7.3308 5.99369
ltoes -12.1839
236
root 3.03979 14.9288 9.305 105.419 5.01252 3.74614
lowerback -9.50655 1.58315 17.6018
upperback -6.08156 0.766837 -4.55003
thorax -1.07479 -0.214034 -15.105
lowerneck -15.2439 -0.286363 -2.09101
upperneck 49.0944 -0.258082 2.16822
head 24.0988 -0.220462 1.62586
rclavicle -8.74653e-015 -2.25496e-014
rhumerus 105.606 -17.326 -45.8384
rradius 24.3658
rwrist -3.28035
rhand -19.477 -15.9033
rfingers 7.12502
rthumb 6.84466 -45.7727
lclavicle -8.74653e-015 -2.25496e-014
lhumerus 69.351 31.9224 -38.3695
lradius 33.569
lwrist 60.4342
lhand -38.8094 -0.681486
lfingers 7.12502
lthumb -11.8199 28.9649
rfemur -50.1217 -1.09619 19.3696
rtibia 47.8446
rfoot 21.4586 1.05115
rtoes 5.83555
lfemur -51.7603 0.140947 -24.4975
ltibia 40.7099
lfoot -6.86675 5.58399
ltoes -10.7151
237
root 3.03794 14.9297 9.26606 105.391 5.11269 3.64165
lowerback -9.37613 1.54517 17.6973
upperback -6.06132 0.730206 -4.57373
thorax -1.14124 -0.241772 -15.196
lowerneck -15.2319 -0.365937 -2.05286
upperneck 49.0869 -0.365952 2.10796
head 24.0916 -0.258117 1.55765
rclavicle 4.37326e-015 -5.69829e-014
rhumerus 105.572 -17.3968 -45.891
rradius 24.3241
rwrist -3.44404
rhand -19.15 -16.0628
rfingers 7.12502
rthumb 7.16037 -45.9216
lclavicle 4.37326e-015 -5.69829e-014
lhumerus 69.2607 32.0303 -38.6437
lradius 33.8523
lwrist 61.1273
lhand -38.7699 -1.18852
lfingers 7.12502
lthumb -11.7818 28.4601
rfemur -50.2148 -1.04702 19.3027
rtibia 47.248
rfoot 21.2553 0.658264
rtoes 5.92943
lfemur -51.4436 0.319372 -24.4852
ltibia 41.115
lfoot -6.47081 5.21779
ltoes -9.53831
238
root 3.03474 14.931 9.22805 105.385 5.21433 3.60959
lowerback -9.27536 1.5066 17.7898
upperback -6.04622 0.687957 -4.58938
thorax -1.19928 -0.271803 -15.2759
lowerneck -15.2298 -0.438782 -2.02193
upperneck 49.1143 -0.451924 2.0354
head 24.1243 -0.290593 1.49099
rclavicle 9.54166e-015 3.80114e-014
rhumerus 105.525 -17.4546 -45.9113
rradius 24.2904
rwrist -3.67085
rhand -18.8421 -16.1843
rfingers 7.12502
rthumb 7.45754 -46.0328
lclavicle 9.54166e-015 3.80114e-014
lhumerus 69.1908 32.1149 -38.8697
lradius 34.1218
lwrist 61.7886
lhand -38.7265 -1.6789
lfingers 7.12502
lthumb -11.7399 27.9721
rfemur -50.3336 -0.926125 19.1824
rtibia 46.5635
rfoot 20.9315 0.1406
rtoes 5.92905
lfemur -51.1012 0.482185 -24.4751
ltibia 41.5199
lfoot -6.20055 4.91883
ltoes -8.90852
239
root 3.02999 14.9326 9.19112 105.406 5.30793 3.64213
lowerback -9.20967 1.46771 17.8677
upperback -6.03713 0.640262 -4.59909
thorax -1.24648 -0.303534 -15.3402
lowerneck -15.2288 -0.504828 -2.02023
upperneck 49.1489 -0.522852 1.98118
head 24.1647 -0.320905 1.4448
rclavicle -2.28602e-014 -8.88319e-016
rhumerus 105.456 -17.5027 -45.8819
rradius 24.2731
rwrist -4.0102
rhand -18.6011 -16.2029
rfingers 7.12502
rthumb 7.69023 -46.0431
lclavicle -2.28602e-014 -8.88319e-016
lhumerus 69.1212 32.1685 -39.0631
lradius 34.375
lwrist 62.3827
lhand -38.6859 -2.11598
lfingers 7.12502
lthumb -11.7007 27.5373
rfemur -50.4837 -0.727012 18.9948
rtibia 45.7977
rfoot 20.5354 -0.513925
rtoes 5.94266
lfemur -50.7395 0.640372 -24.4805
ltibia 41.9112
lfoot -6.04703 4.66991
ltoes -8.85946
